# xmcd
#
# Track frame offsets:
#	150
#	19885
#	39023
#	53201
#	68190
#	81889
#	101079
#	112859
#	129068
#	143669
#	168000
#	184033
#	202836
#	219184
#	238682
#	252461
#	265649
#
# Disc length: 3735 seconds
#
# Revision: 3
# Processed by: cddbd v1.5.2PL0 Copyright (c) Steve Scherf et al.
# Submitted via: audiograbber 1.83.01
#
DISCID=d50e9511
DTITLE=Country Karaoke Classics - CKC39
DYEAR=1900
DGENRE=Karaoke
TTITLE0=Hank Williams Jr. - Country Boy Can Survive
TTITLE1=Hank Williams Jr. - Family Tradition
TTITLE2=Hank Williams Jr. - I'd Love To Knock The Hell Out Of You
TTITLE3=Hank Williams Jr. - Whiskey Bent and Hell Bound
TTITLE4=Hank Williams Jr. - Liquor To Like Her
TTITLE5=Hank Williams Jr. - Outlaws Like Us
TTITLE6=Hank Williams Jr. - Dixie On My Mind
TTITLE7=Hank Williams Jr. - Buck Naked
TTITLE8=Hank Williams Jr. - Good Friends Good Whiskey Good Lovin'
TTITLE9=Hank Williams Jr. - America Will Survive
TTITLE10=Hank Williams Jr. - I'm One Of You
TTITLE11=Hank Williams Jr. - Country State Of Mind
TTITLE12=Hank Williams Jr. and Kid Rock - Naked Women and Beer
TTITLE13=Hank Williams Jr. - Daytona Nights
TTITLE14=Hank Williams Jr. - Finders Are Keepers
TTITLE15=Hank Williams Jr. - There's A Tear In My Beer
TTITLE16=Hank Williams Jr. - All My Rowdy Friends Are Coming Over Tonight
EXTD=
EXTT0=
EXTT1=
EXTT2=
EXTT3=
EXTT4=
EXTT5=
EXTT6=
EXTT7=
EXTT8=
EXTT9=
EXTT10=
EXTT11=
EXTT12=
EXTT13=
EXTT14=
EXTT15=
EXTT16=
PLAYORDER=
